<?xml version="1.0" ?><!DOCTYPE svg  PUBLIC '-//W3C//DTD SVG 1.1//EN'  'http://www.w3.org/Graphics/SVG/1.1/DTD/svg11.dtd'><svg height="2048px" style="shape-rendering:geometricPrecision; text-rendering:geometricPrecision; image-rendering:optimizeQuality; fill-rule:evenodd; clip-rule:evenodd" viewBox="0 0 2048 2048" width="2048px" xml:space="preserve" xmlns="http://www.w3.org/2000/svg" xmlns:xlink="http://www.w3.org/1999/xlink"><defs><style type="text/css">
   <![CDATA[
    .fil2 {fill:none}
    .fil0 {fill:#fff}
    .fil1 {fill:#000}
   ]]>
  </style></defs><g id="Layer_x0020_1"><path class="fil0" d="M1008.15 401.74c3.06496,13.7268 4.1315,28.2343 4.34764,42.2705l0.0850394 5.49213 -5.04567 2.17795c-17.961,7.7504 -39.502,17.3563 -52.5378,32.4366 -19.2047,22.2142 -20.4768,58.9701 -20.4768,86.7698l0 58.4835 -55.493 11.1969 0 -69.9863c0,-51.6142 6.70276,-109.108 50.693,-142.704 19.8449,-15.1559 44.3469,-23.8961 67.6878,-32.0977l8.72481 -3.06614 2.01496 9.02717zm104.322 -32.9799c22.9606,-3.43583 48.3118,-6.11457 71.4816,-3.5752 17.4803,1.91575 34.3335,6.99686 47.8394,18.6933 16.4209,14.2217 24.0862,34.9902 28.3654,55.7221 6.03071,29.2146 6.5563,62.1355 6.5563,91.9076l0 31.265 -55.0725 11.2902 0 -42.5504c0,-20.1142 0.531496,-41.5725 -1.77047,-61.5331 -1.37126,-11.9008 -4.15512,-26.0681 -12.4937,-35.2217 -16.5095,-18.1181 -55.18,-13.5331 -76.4918,-10.4681l-8.50867 1.2248 -0.836221 -8.55591c-1.25787,-12.8717 -3.17717,-25.7044 -5.8878,-38.3528l-1.83071 -8.55119 8.64922 -1.29449zm-392.916 303.673l-55.4776 11.0327 0 -201.053c0,-67.6949 16.0843,-131.912 74.9788,-171.637 36.7217,-24.7689 82.3052,-35.3445 124.935,-45.0107 60.5493,-13.7291 137.595,-20.0256 183.984,30.1937 36.6733,39.7016 42.9248,102.83 42.9248,154.415l0 147.666 -55.5485 11.2335 0 -162.269c0,-18.4512 -0.823229,-37.2201 -4.63111,-55.3193 -2.54173,-12.085 -6.48426,-24.0697 -12.691,-34.7929 -10.4197,-18.0036 -25.6217,-29.6067 -45.4902,-35.6634 -30.2079,-9.21261 -66.9213,-4.34055 -97.0394,2.72244 -42.4181,9.94843 -95.0871,24.6591 -124.885,58.643 -25.0618,28.5815 -31.0595,66.7028 -31.0595,103.513l0 186.326z"/><polygon class="fil0" points="1685.29,1697.75 1685.29,642.461 1685.29,631.004 1674.44,627.057 1459.6,548.906 1450.81,548.2 375.932,763.117 362.71,765.761 362.71,779.227 362.71,1560.96 362.71,1574.43 375.932,1577.07 1450.81,1792 1459.6,1791.29 1674.44,1713.16 1685.29,1709.21 "/><polygon class="fil1" points="865.192,1137.64 865.192,921.852 865.192,902.977 846.514,905.613 608.01,939.292 593.824,941.297 593.824,955.531 593.824,1137.64 593.824,1154.07 610.256,1154.07 848.761,1154.07 865.192,1154.07 "/><polygon class="fil1" points="904.068,920.094 904.068,1137.64 904.068,1154.07 920.5,1154.07 1221.17,1154.07 1237.6,1154.07 1237.6,1137.64 1237.6,876.067 1237.6,857.075 1218.8,859.829 918.125,903.855 904.068,905.913 "/><polygon class="fil1" points="1221.17,1190.77 920.5,1190.77 904.068,1190.77 904.068,1207.2 904.068,1440.67 904.068,1454.85 918.125,1456.91 1218.8,1500.87 1237.6,1503.61 1237.6,1484.63 1237.6,1207.2 1237.6,1190.77 "/><polygon class="fil1" points="865.192,1438.8 865.192,1207.2 865.192,1190.77 848.761,1190.77 610.256,1190.77 593.824,1190.77 593.824,1207.2 593.824,1405.18 593.824,1419.41 608.01,1421.42 846.514,1455.04 865.192,1457.67 "/></g><rect class="fil2" height="2048" width="2048"/></svg>