<?xml version="1.0" ?><svg enable-background="new 0 0 515.91 728.5" height="512" id="Layer_1" version="1.1" viewBox="0 0 512.00003 512" width="512" xml:space="preserve" xmlns="http://www.w3.org/2000/svg" xmlns:cc="http://creativecommons.org/ns#" xmlns:dc="http://purl.org/dc/elements/1.1/" xmlns:inkscape="http://www.inkscape.org/namespaces/inkscape" xmlns:rdf="http://www.w3.org/1999/02/22-rdf-syntax-ns#" xmlns:sodipodi="http://sodipodi.sourceforge.net/DTD/sodipodi-0.dtd" xmlns:svg="http://www.w3.org/2000/svg"><defs id="defs7"/><rect height="512" id="rect2984" rx="64" ry="64" style="fill:#282828;fill-opacity:1;fill-rule:nonzero;stroke:none" width="512" x="1.5e-005" y="0"/><path d="m 308.27768,435.895 c 91.16936,0 127.72254,-51.00256 127.72254,-112.63177 v -223.1418 c 0,-13.39488 -9.5645,-24.01516 -24.86437,-24.01516 H 295.95259 v 27.2029 c 0,10.78476 8.23457,24.01388 24.22683,24.01388 h 66.51665 v 189.56597 c 0,65.87784 -49.72874,70.12901 -79.48056,70.12901 H 204.78452 c -29.7518,0 -79.48061,-4.25117 -79.48061,-70.12901 V 127.32178 h 90.7435 v -27.20162 c 0,-10.78604 -8.2346,-24.01516 -24.22679,-24.01516 h -90.9564 c -15.299905,0 -24.864405,10.62027 -24.864405,24.01516 v 223.14179 c 0,61.62922 36.553205,112.63178 127.722505,112.63178 h 104.55536 z" id="U_1_-4" style="fill:#ffffff;fill-opacity:1;stroke:none"/></svg>